# AST/ASF file generated using VICON BodyLanguage
# -----------------------------------------------
:version 1.10
:name VICON
:units
  mass 1.0
  length 0.45
  angle deg
:documentation
   .ast/.asf automatically generated from VICON data using
   VICON BodyBuilder and BodyLanguage model FoxedUp or BRILLIANT.MOD
:root
   order TX TY TZ RX RY RZ
   axis XYZ
   position 0 0 0  
   orientation 0 0 0 
:bonedata
  begin
     id 1 
     name lhipjoint
     direction 0.597014 -0.743513 0.301268 
     length 2.48253 
     axis 0 0 0  XYZ
  end
  begin
     id 2 
     name lfemur
     direction 0.34202 -0.939693 0  
     length 7.51389  
     axis 0 0 20  XYZ
    dof rx ry rz
    limits (-160.0 20.0)
           (-70.0 70.0)
           (-60.0 70.0)
  end
  begin
     id 3 
     name ltibia
     direction 0.34202 -0.939693 0   
     length 7.54147   
     axis 0 0 20   XYZ
    dof rx
    limits (-10.0 170.0)
  end
  begin
     id 4 
     name lfoot
     direction 0.10378 -0.285133 0.952853   
     length 2.2132   
     axis -90 7.62852e-016 20   XYZ
    dof rx rz
    limits (-45.0 90.0)
           (-70.0 20.0)
  end
  begin
     id 5 
     name ltoes
     direction 1.5354e-011 -4.2171e-011 1   
     length 1.10362   
     axis -90 7.62852e-016 20   XYZ
    dof rx
    limits (-90.0 20.0)
  end
  begin
     id 6 
     name rhipjoint
     direction -0.591912 -0.747009 0.302685   
     length 2.47092  
     axis 0 0 0  XYZ 
  end
  begin
     id 7 
     name rfemur
     direction -0.34202 -0.939693 0   
     length 7.69991   
     axis 0 0 -20   XYZ
    dof rx ry rz
    limits (-160.0 20.0)
           (-70.0 70.0)
           (-70.0 60.0)
  end
  begin
     id 8 
     name rtibia
     direction -0.34202 -0.939693 0   
     length 7.40774   
     axis 0 0 -20   XYZ
    dof rx
    limits (-10.0 170.0)
 end
 begin
     id 9 
     name rfoot
     direction -0.0916245 -0.251736 0.963449   
     length 2.08235  
     axis -90 -7.62852e-016 -20   XYZ
    dof rx rz
    limits (-45.0 90.0)
           (-20.0 70.0)
  end
  begin
     id 10 
     name rtoes
     direction -1.53527e-011 -4.21878e-011 1   
     length 1.04369   
     axis -90 -7.62852e-016 -20   XYZ
    dof rx
    limits (-90.0 20.0)
  end
  begin
     id 11 
     name lowerback
     direction -0.0122523 0.991496 -0.12956   
     length 2.10814   
     axis 0 0 0   XYZ
    dof rx ry rz
    limits (-20.0 45.0)
           (-30.0 30.0)
           (-30.0 30.0)
  end
  begin
     id 12 
     name upperback
     direction 0.012378 0.999784 -0.0167122   
     length 2.11728   
     axis 0 0 0   XYZ
    dof rx ry rz
    limits (-20.0 45.0)
           (-30.0 30.0)
           (-30.0 30.0)
  end
  begin
     id 13 
     name thorax
     direction 0.0187236 0.998893 0.0431542   
     length 2.15267   
     axis 0 0 0   XYZ
    dof rx ry rz
    limits (-20.0 45.0)
           (-30.0 30.0)
           (-30.0 30.0)
  end
  begin
     id 14 
     name lowerneck
     direction 0.0165467 0.987304 0.157979   
     length 1.72129   
     axis 0 0 0   XYZ
    dof rx ry rz
    limits (-20.0 45.0)
           (-30.0 30.0)
           (-30.0 30.0)
  end
  begin
     id 15 
     name upperneck
     direction -0.0560236 0.986819 -0.151818   
     length 1.75382   
     axis 0 0 0   XYZ
    dof rx ry rz
    limits (-20.0 45.0)
           (-30.0 30.0)
           (-30.0 30.0)
  end
  begin
     id 16
     name head
     direction -0.0173602 0.99745 -0.0692312  
     length 1.76328  
     axis 0 0 0   XYZ
    dof rx ry rz
    limits (-20.0 45.0)
           (-30.0 30.0)
           (-30.0 30.0)
  end
  begin
     id 17 
     name lclavicle
     direction 0.957734 0.271724 -0.094399  
     length 3.5782  
     axis 0 0 0   XYZ
    dof ry rz
    limits (-20.0 10.0)
           (0.0 20.0)
  end
  begin
     id 18 
     name lhumerus
     direction 1 -4.48963e-011 1.21581e-027   
     length 5.25525   
     axis 180 -30 -90   XYZ
    dof rx ry rz
    limits (-60.0 90.0)
           (-90.0 90.0)
           (-90.0 90.0)
  end
  begin
     id 19
     name lradius
     direction 1 -4.48975e-011 3.71216e-028   
     length 3.35106   
     axis 180 -30 -90   XYZ
    dof rx
    limits (-10.0 170.0)
  end
  begin
     id 20
     name lwrist
     direction 1 -4.48957e-011 4.76535e-027   
     length 1.67553   
     axis -3.27501e-015 90 90   XYZ
    dof ry
    limits (-180.0 0.0)
 end
  begin
     id 21 
     name lhand
     direction 1 -4.49008e-011 9.52727e-027   
     length 0.574153   
     axis -6.08097e-015 90 90   XYZ
    dof rx rz
    limits (-90.0 90.0)
           (-45.0 45.0)
  end
  begin
     id 22 
     name lfingers
     direction 1 -4.48996e-011 1.90562e-026   
     length 0.462897   
     axis -1.21618e-014 90 90   XYZ
    dof rx
    limits (0.0 90.0)
  end
  begin
     id 23
     name lthumb
     direction 0.707107 -6.34908e-011 0.707107   
     length 0.66463   
     axis -90 45 -1.62303e-014   XYZ
    dof rx rz
    limits (-45.0 45.0)
           (-45.0 45.0)
  end
  begin
     id 24 
     name rclavicle
     direction -0.950439 0.29623 -0.0944132   
     length 3.45861  
     axis 0 0 0   XYZ 
    dof ry rz
    limits (-10.0 20.0)
           (-20.0 0.0)
  end
  begin
     id 25 
     name rhumerus
     direction -1 -4.48986e-011 1.25473e-027  
     length 5.33104   
     axis 180 30 90   XYZ
    dof rx ry rz
    limits (-90.0 60.0)
           (-90.0 90.0)
           (-90.0 90.0)
  end
  begin
     id 26 
     name rradius
     direction -1 -4.4894e-011 1.66273e-027   
     length 3.39883   
     axis 180 30 90   XYZ
    dof rx
    limits (-10.0 170.0)
  end
  begin
     id 27 
     name rwrist
     direction -1 -4.48946e-011 4.76572e-027   
     length 1.69941   
     axis -3.27501e-015 -90 -90   XYZ
    dof ry
    limits (-180.0 0.0)
  end
  begin
     id 28
     name rhand
     direction -1 -4.49028e-011 9.52595e-027   
     length 0.913886   
     axis -6.08097e-015 -90 -90   XYZ
    dof rx rz
    limits (-90.0 90.0)
           (-45.0 45.0)
  end
  begin
     id 29
     name rfingers
     direction -1 -4.48945e-011 1.9063e-026   
     length 0.736798   
     axis -1.21618e-014 -90 -90   XYZ
    dof rx
    limits (0.0 90.0)
  end
  begin
     id 30
     name rthumb
     direction -0.707107 -6.34966e-011 0.707107   
     length 1.0579   
     axis -90 -45 1.62303e-014   XYZ
    dof rx rz
    limits (-45.0 45.0)
           (-45.0 45.0)
  end
:hierarchy
  begin
    root lhipjoint rhipjoint lowerback
    lhipjoint lfemur
    lfemur ltibia
    ltibia lfoot
    lfoot ltoes
    rhipjoint rfemur
    rfemur rtibia
    rtibia rfoot
    rfoot rtoes
    lowerback upperback
    upperback thorax
    thorax lowerneck lclavicle rclavicle
    lowerneck upperneck
    upperneck head
    lclavicle lhumerus
    lhumerus lradius
    lradius lwrist
    lwrist lhand lthumb
    lhand lfingers
    rclavicle rhumerus
    rhumerus rradius
    rradius rwrist
    rwrist rhand rthumb
    rhand rfingers
  end

#!OML:ASF F:\VICON\USERDATA\INSTALL\rory3\rory3.ASF
:FULLY-SPECIFIED
:DEGREES
884
root -18.7669 16.8161 -23.7645 -352.489 57.846 -348.842
lowerback 13.956 3.1085 3.77017
upperback 2.25595 4.79706 1.10369
thorax -5.20693 2.32463 -1.82397
lowerneck -25.2469 10.3165 8.16311
upperneck 9.46223 14.0027 -15.1921
head 8.77511 5.55738 -4.28558
rclavicle -3.67752e-014 -1.11319e-014
rhumerus -15.6299 6.18569 -69.6222
rradius 68.5508
rwrist -4.00506
rhand -20.2811 373.633
rfingers 7.12502
rthumb 6.06843 -736.26
lclavicle -3.67752e-014 -1.11319e-014
lhumerus -48.1175 12.2551 67.3797
lradius 59.157
lwrist 25.1654
lhand -10.6013 22.8788
lfingers 7.12502
lthumb 15.4046 52.2848
rfemur -4.11207 -17.3183 18.2459
rtibia 49.0174
rfoot -32.1811 -2.15604
rtoes -9.59736
lfemur -18.8883 -9.9387 -12.3965
ltibia 72.7249
lfoot -4.31573 -0.730642
ltoes -24.5393
885
root -18.707 16.8677 -23.4518 -352.374 56.5787 -349.335
lowerback 13.7929 3.16711 3.89039
upperback 1.52462 4.88325 0.919383
thorax -5.86115 2.32896 -2.11721
lowerneck -24.7752 9.38951 7.60474
upperneck 9.86362 12.6552 -13.6307
head 8.49491 5.04677 -3.92584
rclavicle -6.20208e-014 6.36111e-015
rhumerus -14.1395 7.90821 -67.8913
rradius 69.9057
rwrist -2.97983
rhand -19.996 374.089
rfingers 7.12502
rthumb 6.34364 -735.796
lclavicle -6.20208e-014 6.36111e-015
lhumerus -51.1571 11.5166 65.3114
lradius 57.1083
lwrist 19.7413
lhand -11.1197 22.152
lfingers 7.12502
lthumb 14.9052 51.5958
rfemur -2.74727 -16.3397 19.1747
rtibia 46.4148
rfoot -31.9274 -1.69729
rtoes -5.4133
lfemur -20.9703 -9.30687 -13.8925
ltibia 73.9429
lfoot -5.45031 -3.70228
ltoes -20.0179
886
root -18.6383 16.9344 -23.1287 -352.446 55.16 -349.797
lowerback 13.4738 3.30532 4.11578
upperback 1.15338 5.0577 0.450928
thorax -6.00525 2.39104 -2.75671
lowerneck -24.1889 7.9704 6.67178
upperneck 9.80096 10.5956 -11.4333
head 7.93919 4.26247 -3.39933
rclavicle -1.26427e-013 -3.18055e-015
rhumerus -12.3113 8.94006 -66.1244
rradius 70.8809
rwrist -1.03591
rhand -19.8622 374.651
rfingers 7.12502
rthumb 6.47282 -735.23
lclavicle -1.26427e-013 -3.18055e-015
lhumerus -53.8213 10.1094 63.6544
lradius 57.1603
lwrist 16.4293
lhand -10.9886 20.5001
lfingers 7.12502
lthumb 15.0315 49.9344
rfemur -0.954307 -15.2341 19.949
rtibia 43.7086
rfoot -31.7929 -3.60503
rtoes -14.4827
lfemur -22.7819 -8.02058 -15.971
ltibia 73.9646
lfoot -6.60234 -5.49244
ltoes -28.4955
887
root -18.5584 17.0085 -22.7965 -352.422 53.8066 -350.15
lowerback 12.8156 3.52991 4.06368
upperback 0.888822 5.29448 0.0742346
thorax -5.8714 2.50299 -3.12364
lowerneck -23.1582 6.05669 5.16921
upperneck 9.36662 7.9887 -8.76289
head 7.18091 3.24866 -2.68535
rclavicle 3.61788e-014 -1.43125e-014
rhumerus -10.3336 9.94891 -63.536
rradius 71.531
rwrist 0.352779
rhand -19.9307 375.455
rfingers 7.12502
rthumb 6.40671 -734.428
lclavicle 3.61788e-014 -1.43125e-014
lhumerus -56.5914 8.3643 63.0234
lradius 59.0815
lwrist 16.3194
lhand -10.4907 19.3023
lfingers 7.12502
lthumb 15.5111 48.7001
rfemur 0.905939 -14.3382 20.513
rtibia 41.2208
rfoot -30.9281 -4.25713
rtoes -21.6835
lfemur -24.2907 -6.91819 -17.9666
ltibia 73.3075
lfoot -7.57803 -6.89665
ltoes -29.9571
888
root -18.468 17.1018 -22.4539 -352.621 52.4792 -350.654
lowerback 12.8988 3.84048 4.41337
upperback 0.0933761 5.73732 -0.521624
thorax -6.6343 2.65831 -4.06481
lowerneck -23.8139 3.29042 4.60234
upperneck 11.2605 4.06757 -6.24591
head 7.54279 1.53401 -2.29029
rclavicle 1.86858e-014 -1.74931e-014
rhumerus -9.68101 10.2323 -61.0949
rradius 72.3462
rwrist 1.5766
rhand -20.3603 375.866
rfingers 7.12502
rthumb 5.99193 -734.03
lclavicle 1.86858e-014 -1.74931e-014
lhumerus -59.7139 5.4953 62.8962
lradius 61.7788
lwrist 17.8852
lhand -9.2408 18.9353
lfingers 7.12502
lthumb 16.7146 48.2357
rfemur 2.72908 -13.5632 21.0155
rtibia 39.0296
rfoot -28.8643 -4.02405
rtoes -28.1924
lfemur -25.1663 -6.13985 -19.756
ltibia 71.7451
lfoot -8.60946 -7.85971
ltoes -27.2008
889
root -18.3751 17.2243 -22.0893 -352.793 51.0527 -350.934
lowerback 12.681 4.15758 3.95477
upperback -0.354114 6.07892 -0.677159
thorax -6.98803 2.81645 -4.03738
lowerneck -24.1954 0.838405 4.04447
upperneck 13.0069 0.681536 -4.62933
head 7.97972 0.0425387 -2.12464
rclavicle -5.46161e-014 1.98785e-014
rhumerus -8.3763 9.77553 -58.1061
rradius 72.6021
rwrist 3.19009
rhand -20.2457 376.648
rfingers 7.12502
rthumb 6.10263 -733.244
lclavicle -5.46161e-014 1.98785e-014
lhumerus -62.704 3.54478 63.7164
lradius 64.7644
lwrist 19.6112
lhand -8.24827 18.5082
lfingers 7.12502
lthumb 17.6699 47.7253
rfemur 4.25284 -12.4267 21.1965
rtibia 37.4391
rfoot -25.9533 -0.968385
rtoes -26.7489
lfemur -25.4039 -5.32092 -21.5411
ltibia 69.3395
lfoot -9.81643 -8.71579
ltoes -24.1031
890
root -18.2801 17.393 -21.6951 -353.089 49.7429 -351.374
lowerback 12.2665 4.42139 3.45181
upperback -0.616995 6.33713 -0.790053
thorax -7.0532 2.95296 -3.8971
lowerneck -24.7064 -1.44358 3.81205
upperneck 14.699 -2.52542 -3.60757
head 8.49963 -1.37216 -2.20511
rclavicle 4.95471e-014 -6.36111e-015
rhumerus -6.78122 8.93124 -55.5553
rradius 72.439
rwrist 3.01582
rhand -21.0179 376.611
rfingers 7.12502
rthumb 5.35711 -733.301
lclavicle 4.95471e-014 -6.36111e-015
lhumerus -65.2264 1.99663 64.8
lradius 67.7083
lwrist 20.7401
lhand -7.94448 17.9687
lfingers 7.12502
lthumb 17.9623 47.1592
rfemur 5.29998 -11.2387 21.4121
rtibia 36.6537
rfoot -21.4422 3.90929
rtoes -18.617
lfemur -25.2926 -4.13693 -22.8943
ltibia 66.0931
lfoot -10.8818 -9.82645
ltoes -22.7539
891
root -18.196 17.55 -21.2985 -353.448 48.5216 -351.744
lowerback 12.2856 4.61213 3.06033
upperback -0.899764 6.53371 -0.872564
thorax -7.38426 3.04617 -3.82121
lowerneck -24.1508 -3.47495 3.15737
upperneck 15.4403 -5.28897 -2.43572
head 8.59618 -2.56679 -2.07943
rclavicle 5.80451e-014 -3.97569e-015
rhumerus -5.40958 7.2528 -53.4834
rradius 72.1651
rwrist 2.94958
rhand -21.8539 376.987
rfingers 7.12502
rthumb 4.54986 -732.944
lclavicle 5.80451e-014 -3.97569e-015
lhumerus -67.3187 0.704355 66.3051
lradius 70.4327
lwrist 20.8121
lhand -8.04356 17.1995
lfingers 7.12502
lthumb 17.8669 46.3988
rfemur 5.97498 -10.193 21.4217
rtibia 36.7887
rfoot -13.7431 8.88018
rtoes 8.98462
lfemur -24.8979 -3.24879 -24.0652
ltibia 62.3749
lfoot -12.091 -10.8984
ltoes -23.3928
892
root -18.1252 17.6465 -20.8992 -353.705 48.5472 -351.809
lowerback 11.74 4.15568 2.28905
upperback -0.6228 5.80667 -0.733369
thorax -6.92625 2.74251 -3.06015
lowerneck -24.3828 -4.97385 2.96829
upperneck 16.2666 -7.40133 -1.88937
head 8.87874 -3.48731 -2.17887
rclavicle -5.76972e-014 -5.56597e-015
rhumerus -3.3389 4.91498 -52.35
rradius 72.1992
rwrist 2.96096
rhand -22.7933 375.704
rfingers 7.12502
rthumb 3.64272 -734.244
lclavicle -5.76972e-014 -5.56597e-015
lhumerus -68.3915 0.755394 67.8804
lradius 72.8161
lwrist 19.6931
lhand -8.22205 16.2822
lfingers 7.12502
lthumb 17.6952 45.497
rfemur 6.10335 -10.7379 21.0402
rtibia 37.9376
rfoot -7.84162 11.3742
rtoes 8.4112
lfemur -24.2711 -3.83551 -25.0302
ltibia 58.5382
lfoot -13.5648 -11.7418
ltoes -24.8807
893
root -18.0591 17.7308 -20.4856 -354.259 48.5939 -351.763
lowerback 12.1472 3.81151 1.81801
upperback -0.711775 5.27573 -0.943977
thorax -7.3063 2.48517 -2.97213
lowerneck -22.8423 -6.22971 3.05096
upperneck 16.1972 -9.249 -1.16676
head 8.57487 -4.27414 -2.13671
rclavicle 1.08934e-013 9.54166e-015
rhumerus -2.91571 1.94209 -52.3146
rradius 73.2948
rwrist 2.20047
rhand -23.6873 371.648
rfingers 7.12502
rthumb 2.77938 -738.313
lclavicle 1.08934e-013 9.54166e-015
lhumerus -68.8957 -0.357905 69.4777
lradius 74.5817
lwrist 18.2401
lhand -8.10378 16.0099
lfingers 7.12502
lthumb 17.809 45.2144
rfemur 5.97877 -10.9153 20.574
rtibia 40.2222
rfoot -1.62514 12.918
rtoes 12.1791
lfemur -22.9334 -4.04454 -25.746
ltibia 54.6654
lfoot -14.6495 -12.8837
ltoes -24.0304
894
root -17.9913 17.7824 -20.0643 -354.766 48.6235 -351.826
lowerback 12.3042 3.409 1.40925
upperback -0.721453 4.66903 -1.13354
thorax -7.45644 2.19792 -2.85163
lowerneck -21.9755 -7.00443 3.45937
upperneck 16.5704 -10.4152 -1.18366
head 8.50121 -4.79473 -2.32912
rclavicle 3.75206e-014 7.15625e-015
rhumerus -2.75628 -1.29328 -53.1754
rradius 75.4833
rwrist 1.28468
rhand -24.1828 370.919
rfingers 7.12502
rthumb 2.30084 -739.048
lclavicle 3.75206e-014 7.15625e-015
lhumerus -68.8054 -1.73781 71.4525
lradius 76.3525
lwrist 16.964
lhand -8.15173 15.4368
lfingers 7.12502
lthumb 17.7628 44.6455
rfemur 5.15961 -11.4246 20.0301
rtibia 43.4887
rfoot -0.138667 15.2801
rtoes -4.90523
lfemur -21.6214 -4.28608 -26.1799
ltibia 51.2762
lfoot -14.9195 -13.0399
ltoes -22.976
895
root -17.9393 17.7854 -19.6466 -353.336 48.4524 -349.961
lowerback 11.8457 3.136 -0.556689
upperback -0.621635 4.00157 -1.47189
thorax -7.23553 1.94817 -1.95661
lowerneck -20.433 -7.21844 2.76338
upperneck 15.9128 -10.7258 0.323632
head 8.14349 -4.84971 -1.68203
rclavicle 2.21148e-014 1.11319e-014
rhumerus -2.47018 -4.61919 -54.3171
rradius 78.3573
rwrist 1.36324
rhand -25.3982 371.52
rfingers 7.12502
rthumb 1.12701 -738.457
lclavicle 2.21148e-014 1.11319e-014
lhumerus -67.7984 -3.1104 73.8996
lradius 78.0707
lwrist 15.828
lhand -8.1854 15.4448
lfingers 7.12502
lthumb 17.7304 44.6564
rfemur 3.35434 -12.2073 17.9347
rtibia 47.643
rfoot -1.18353 15.2724
rtoes -11.5144
lfemur -20.7988 -4.6715 -27.7306
ltibia 48.417
lfoot -13.9647 -12.6868
ltoes -21.0075
896
root -17.8868 17.7421 -19.2249 -354.498 48.2118 -350.689
lowerback 11.721 2.80889 -1.00748
upperback -0.156774 3.54267 -1.00055
thorax -6.73825 1.75383 -1.1013
lowerneck -21.4584 -7.41234 2.48736
upperneck 17.515 -10.8165 -0.591883
head 8.81833 -4.95053 -2.05105
rclavicle 3.16565e-014 1.19271e-014
rhumerus -2.21385 -6.22613 -55.6251
rradius 82.9208
rwrist 0.0789988
rhand -27.4133 368.353
rfingers 7.12502
rthumb -0.819309 -741.625
lclavicle 3.16565e-014 1.19271e-014
lhumerus -65.9321 -4.1472 76.9322
lradius 79.6766
lwrist 15.0022
lhand -8.54512 15.1298
lfingers 7.12502
lthumb 17.3843 44.3723
rfemur 1.99548 -12.8127 17.566
rtibia 52.2193
rfoot -3.43014 11.6251
rtoes -13.9723
lfemur -19.4324 -4.74493 -27.2306
ltibia 46.7728
lfoot -12.9441 -12.1659
ltoes -15.1571
897
root -17.8328 17.6758 -18.8399 -354.403 48.0384 -350.279
lowerback 11.7154 2.4234 -1.6147
upperback 0.0404083 2.95863 -0.876868
thorax -6.56722 1.49099 -0.523102
lowerneck -20.867 -7.07553 2.16227
upperneck 17.3142 -10.1831 -0.812285
head 8.66401 -4.71481 -1.96174
rclavicle -6.9848e-014 6.36111e-015
rhumerus -3.2863 -7.79949 -57.6173
rradius 87.7403
rwrist -0.546317
rhand -30.4118 370.084
rfingers 7.12502
rthumb -3.71515 -739.864
lclavicle -6.9848e-014 6.36111e-015
lhumerus -63.6745 -5.5702 79.971
lradius 81.4099
lwrist 14.4606
lhand -8.72334 14.2278
lfingers 7.12502
lthumb 17.2127 43.4855
rfemur -0.212038 -13.9643 15.9773
rtibia 57.306
rfoot -5.01567 7.12235
rtoes -15.0553
lfemur -18.4321 -4.98413 -27.574
ltibia 46.0904
lfoot -13.0787 -10.6253
ltoes -7.46717
898
root -17.7787 17.5788 -18.4627 -356.442 47.315 -351.685
lowerback 12.7559 2.13675 -0.819779
upperback 0.335479 2.69415 -0.596567
thorax -6.81282 1.33917 -0.66408
lowerneck -20.5207 -6.35635 2.18178
upperneck 17.339 -9.10549 -1.22499
head 8.61081 -4.25807 -1.9527
rclavicle 3.04638e-014 -7.15625e-015
rhumerus -5.52499 -8.71627 -60.2064
rradius 93.1065
rwrist -1.08773
rhand -33.1609 372.219
rfingers 7.12502
rthumb -6.36956 -737.666
lclavicle 3.04638e-014 -7.15625e-015
lhumerus -60.9165 -7.29469 82.3455
lradius 83.2769
lwrist 13.7992
lhand -7.16373 11.8029
lfingers 7.12502
lthumb 18.7133 40.9228
rfemur -1.99138 -14.3685 15.4533
rtibia 62.201
rfoot -6.05996 3.49459
rtoes -16.9295
lfemur -16.4161 -5.05357 -26.4213
ltibia 46.3962
lfoot -13.3537 -7.40535
ltoes -9.02394
